<svg xmlns="http://www.w3.org/2000/svg" width="21.03" height="12.03" viewBox="0 0 21.03 12.03">
  <defs>
    <style>
      .cls-1 {
        fill-rule: evenodd;
      }
    </style>
  </defs>
  <path id="Review_Right_Arrow" data-name="Review Right Arrow" class="cls-1" d="M1158.43,3164.75a0.467,0.467,0,0,0,0,.79l3.93,3.9h-17.62a0.49,0.49,0,0,0-.56.56v0.47a0.494,0.494,0,0,0,.56.56h17.62l-3.93,3.89a0.476,0.476,0,0,0,0,.8l0.32,0.32a0.476,0.476,0,0,0,.8,0l5.44-5.43a0.44,0.44,0,0,0,0-.75l-5.44-5.44a0.486,0.486,0,0,0-.8,0Z" transform="translate(-1144.19 -3164.22)"/>
</svg>
