<svg xmlns="http://www.w3.org/2000/svg" width="29.5" height="54" viewBox="0 0 29.5 54">
  <defs>
    <style>
      .cls-1 {
        fill: #403a60;
        fill-rule: evenodd;
      }
    </style>
  </defs>
  <path id="Scroll_Down" data-name="Scroll Down" class="cls-1" d="M967.047,857.5a14.7,14.7,0,0,1,7.344,12.771v24.516a14.742,14.742,0,1,1-29.484,0V870.269A14.769,14.769,0,0,1,967.047,857.5Zm5.346,12.771a12.421,12.421,0,0,0-1.728-6.4,12.987,12.987,0,0,0-4.644-4.671,12.612,12.612,0,0,0-12.744,0,12.987,12.987,0,0,0-4.644,4.671,12.421,12.421,0,0,0-1.728,6.4v24.516a12.273,12.273,0,0,0,1.728,6.372,13.055,13.055,0,0,0,4.644,4.644,12.612,12.612,0,0,0,12.744,0,13.055,13.055,0,0,0,4.644-4.644,12.273,12.273,0,0,0,1.728-6.372V870.269Zm-10.044,26.838a3.781,3.781,0,1,0,1.134,2.7A3.687,3.687,0,0,0,962.349,897.107Zm-0.7-6.642a2.683,2.683,0,0,0-1.971-.81,2.64,2.64,0,0,0-1.971.837,2.743,2.743,0,0,0-.81,1.971,2.766,2.766,0,0,0,2.754,2.754,2.741,2.741,0,0,0,1.971-.81,2.609,2.609,0,0,0,.837-1.944A2.716,2.716,0,0,0,961.647,890.465Zm-0.567-4.914a1.863,1.863,0,0,0-1.4-.594,2,2,0,0,0-1.431.567,1.863,1.863,0,0,0-.594,1.4,2,2,0,0,0,.567,1.431,2.021,2.021,0,0,0,2.862,0A2.022,2.022,0,0,0,961.08,885.551Z" transform="translate(-944.906 -855.531)"/>
</svg>
