<svg xmlns="http://www.w3.org/2000/svg" width="24.06" height="43.187" viewBox="0 0 24.06 43.187">
  <defs>
    <style>
      .cls-1 {
        fill: #403a60;
        fill-rule: evenodd;
      }
    </style>
  </defs>
  <path id="Slider_Right_Arrow" data-name="Slider Right Arrow" class="cls-1" d="M1806.56,489.518a2.434,2.434,0,1,0,.72,1.728A2.368,2.368,0,0,0,1806.56,489.518Zm0,12.816a2.434,2.434,0,1,0,.72,1.728A2.368,2.368,0,0,0,1806.56,502.334Zm0,6.372a2.53,2.53,0,0,0-3.46,0,2.243,2.243,0,0,0-.72,1.692,2.45,2.45,0,0,0,4.9,0A2.243,2.243,0,0,0,1806.56,508.706Zm0,6.444a2.45,2.45,0,0,0-4.18,1.728,2.237,2.237,0,0,0,.72,1.692,2.53,2.53,0,0,0,3.46,0,2.237,2.237,0,0,0,.72-1.692A2.36,2.36,0,0,0,1806.56,515.15Zm6.37-6.444a2.291,2.291,0,0,0-1.69-.684,2.432,2.432,0,0,0-1.73.684,2.243,2.243,0,0,0-.72,1.692,2.458,2.458,0,0,0,2.45,2.448,2.226,2.226,0,0,0,1.69-.72,2.406,2.406,0,0,0,.69-1.728A2.291,2.291,0,0,0,1812.93,508.706Zm0-12.744a2.291,2.291,0,0,0-1.69-.684,2.432,2.432,0,0,0-1.73.684,2.243,2.243,0,0,0-.72,1.692,2.353,2.353,0,0,0,.72,1.728,2.355,2.355,0,0,0,3.39,0,2.353,2.353,0,0,0,.72-1.728A2.291,2.291,0,0,0,1812.93,495.962Zm-12.78,25.524a2.434,2.434,0,1,0,.72,1.728A2.352,2.352,0,0,0,1800.15,521.486Zm19.15-19.152a2.434,2.434,0,1,0,.72,1.728A2.346,2.346,0,0,0,1819.3,502.334Zm-6.37,0a2.234,2.234,0,0,0-1.69-.72,2.448,2.448,0,0,0,0,4.9,2.226,2.226,0,0,0,1.69-.72A2.509,2.509,0,0,0,1812.93,502.334Zm-6.37-6.372a2.53,2.53,0,0,0-3.46,0,2.243,2.243,0,0,0-.72,1.692,2.45,2.45,0,0,0,4.9,0A2.243,2.243,0,0,0,1806.56,495.962Zm-6.41-12.78a2.434,2.434,0,1,0,.72,1.728A2.352,2.352,0,0,0,1800.15,483.182Zm0,31.968a2.426,2.426,0,0,0-3.45,0,2.412,2.412,0,0,0,1.72,4.1,2.407,2.407,0,0,0,1.73-.684,2.237,2.237,0,0,0,.72-1.692A2.36,2.36,0,0,0,1800.15,515.15Zm0-25.632a2.434,2.434,0,1,0,.72,1.728A2.352,2.352,0,0,0,1800.15,489.518Zm0,12.816a2.434,2.434,0,1,0,.72,1.728A2.352,2.352,0,0,0,1800.15,502.334Zm0-6.372a2.416,2.416,0,0,0-1.73-.684,2.346,2.346,0,0,0-1.72.72,2.28,2.28,0,0,0-.72,1.656,2.348,2.348,0,0,0,.75,1.692,2.39,2.39,0,0,0,1.73.756,2.3,2.3,0,0,0,1.69-.72,2.353,2.353,0,0,0,.72-1.728A2.243,2.243,0,0,0,1800.15,495.962Zm0,12.744a2.416,2.416,0,0,0-1.73-.684,2.346,2.346,0,0,0-1.72.72,2.412,2.412,0,0,0,1.72,4.1,2.458,2.458,0,0,0,2.45-2.448A2.243,2.243,0,0,0,1800.15,508.706Z" transform="translate(-1795.97 -482.469)"/>
</svg>
