<svg xmlns="http://www.w3.org/2000/svg" width="24.062" height="43.187" viewBox="0 0 24.062 43.187">
  <defs>
    <style>
      .cls-1 {
        fill: #403a60;
        fill-rule: evenodd;
      }
    </style>
  </defs>
  <path id="Slider_Left_Arrow" data-name="Slider Left Arrow" class="cls-1" d="M113.44,489.518a2.434,2.434,0,1,1-.72,1.728A2.357,2.357,0,0,1,113.44,489.518Zm0,12.816a2.434,2.434,0,1,1-.72,1.728A2.357,2.357,0,0,1,113.44,502.334Zm0,6.372a2.525,2.525,0,0,1,3.456,0,2.247,2.247,0,0,1,.72,1.692,2.448,2.448,0,0,1-4.9,0A2.243,2.243,0,0,1,113.44,508.706Zm0,6.444a2.448,2.448,0,0,1,4.176,1.728,2.241,2.241,0,0,1-.72,1.692,2.525,2.525,0,0,1-3.456,0,2.237,2.237,0,0,1-.72-1.692A2.36,2.36,0,0,1,113.44,515.15Zm-6.336-6.444a2.435,2.435,0,0,1,3.384,0,2.247,2.247,0,0,1,.72,1.692,2.458,2.458,0,0,1-2.448,2.448,2.235,2.235,0,0,1-1.692-.72,2.413,2.413,0,0,1-.684-1.728A2.243,2.243,0,0,1,107.1,508.706Zm0-12.744a2.435,2.435,0,0,1,3.384,0,2.247,2.247,0,0,1,.72,1.692,2.357,2.357,0,0,1-.72,1.728,2.348,2.348,0,0,1-3.384,0,2.353,2.353,0,0,1-.72-1.728A2.243,2.243,0,0,1,107.1,495.962Zm12.744,25.524a2.434,2.434,0,1,1-.72,1.728A2.357,2.357,0,0,1,119.848,521.486ZM100.7,502.334a2.434,2.434,0,1,1-.72,1.728A2.357,2.357,0,0,1,100.7,502.334Zm6.372,0a2.242,2.242,0,0,1,1.692-.72,2.448,2.448,0,0,1,0,4.9,2.235,2.235,0,0,1-1.692-.72A2.525,2.525,0,0,1,107.068,502.334Zm6.372-6.372a2.525,2.525,0,0,1,3.456,0,2.247,2.247,0,0,1,.72,1.692,2.448,2.448,0,0,1-4.9,0A2.243,2.243,0,0,1,113.44,495.962Zm6.408-12.78a2.434,2.434,0,1,1-.72,1.728A2.357,2.357,0,0,1,119.848,483.182Zm0,31.968a2.434,2.434,0,0,1,3.456,0,2.348,2.348,0,0,1,0,3.384,2.353,2.353,0,0,1-1.728.72,2.413,2.413,0,0,1-1.728-.684,2.237,2.237,0,0,1-.72-1.692A2.36,2.36,0,0,1,119.848,515.15Zm0-25.632a2.434,2.434,0,1,1-.72,1.728A2.357,2.357,0,0,1,119.848,489.518Zm0,12.816a2.434,2.434,0,1,1-.72,1.728A2.357,2.357,0,0,1,119.848,502.334Zm0-6.372a2.421,2.421,0,0,1,1.728-.684,2.361,2.361,0,0,1,1.728.72,2.284,2.284,0,0,1,.72,1.656,2.4,2.4,0,0,1-.72,1.692,2.3,2.3,0,0,1-1.728.756,2.458,2.458,0,0,1-2.448-2.448A2.243,2.243,0,0,1,119.848,495.962Zm0,12.744a2.421,2.421,0,0,1,1.728-.684,2.361,2.361,0,0,1,1.728.72,2.348,2.348,0,0,1,0,3.384,2.448,2.448,0,0,1-4.176-1.728A2.243,2.243,0,0,1,119.848,508.706Z" transform="translate(-99.969 -482.469)"/>
</svg>
