<svg xmlns="http://www.w3.org/2000/svg" width="86.41" height="15.25" viewBox="0 0 86.41 15.25">
  <defs>
    <style>
      .cls-1 {
        fill: #5ea26c;
        fill-rule: evenodd;
      }
    </style>
  </defs>
  <path id="Star" class="cls-1" d="M1062.84,2295.26a1.116,1.116,0,0,1-.35.41,0.931,0.931,0,0,1-.5.2l-4.72.47a0.27,0.27,0,0,0-.29.15,0.333,0.333,0,0,0,.13.31l3.57,3.14a0.906,0.906,0,0,1,.27.45,1.036,1.036,0,0,1,.05.54l-1.02,4.64a0.3,0.3,0,0,0,.04.33,0.336,0.336,0,0,0,.34-0.04l4.1-2.42a1.065,1.065,0,0,1,1.02,0l4.1,2.42a0.317,0.317,0,0,0,.32.03,0.3,0.3,0,0,0,.08-0.32l-1.03-4.64a1.013,1.013,0,0,1,.03-0.54,0.928,0.928,0,0,1,.29-0.45l3.55-3.14a0.323,0.323,0,0,0,.14-0.31,0.286,0.286,0,0,0-.3-0.15l-4.72-.47a0.9,0.9,0,0,1-.49-0.2,1.084,1.084,0,0,1-.34-0.41l-1.9-4.35a0.3,0.3,0,0,0-.24-0.22,0.277,0.277,0,0,0-.24.22Zm17.6,0a1.116,1.116,0,0,1-.35.41,0.931,0.931,0,0,1-.5.2l-4.72.47a0.27,0.27,0,0,0-.29.15,0.333,0.333,0,0,0,.13.31l3.57,3.14a0.906,0.906,0,0,1,.27.45,1.036,1.036,0,0,1,.05.54l-1.02,4.64a0.3,0.3,0,0,0,.04.33,0.336,0.336,0,0,0,.34-0.04l4.1-2.42a1.065,1.065,0,0,1,1.02,0l4.1,2.42a0.317,0.317,0,0,0,.32.03,0.3,0.3,0,0,0,.08-0.32l-1.03-4.64a1.013,1.013,0,0,1,.03-0.54,0.928,0.928,0,0,1,.29-0.45l3.55-3.14a0.323,0.323,0,0,0,.14-0.31,0.286,0.286,0,0,0-.3-0.15l-4.72-.47a0.9,0.9,0,0,1-.49-0.2,1.084,1.084,0,0,1-.34-0.41l-1.9-4.35a0.3,0.3,0,0,0-.24-0.22,0.277,0.277,0,0,0-.24.22Zm17.6,0a1.116,1.116,0,0,1-.35.41,0.931,0.931,0,0,1-.5.2l-4.72.47a0.27,0.27,0,0,0-.29.15,0.333,0.333,0,0,0,.13.31l3.57,3.14a0.906,0.906,0,0,1,.27.45,1.036,1.036,0,0,1,.05.54l-1.02,4.64a0.3,0.3,0,0,0,.04.33,0.336,0.336,0,0,0,.34-0.04l4.1-2.42a1.065,1.065,0,0,1,1.02,0l4.1,2.42a0.317,0.317,0,0,0,.32.03,0.3,0.3,0,0,0,.08-0.32l-1.03-4.64a1.013,1.013,0,0,1,.03-0.54,0.928,0.928,0,0,1,.29-0.45l3.55-3.14a0.323,0.323,0,0,0,.14-0.31,0.286,0.286,0,0,0-.3-0.15l-4.72-.47a0.9,0.9,0,0,1-.49-0.2,1.084,1.084,0,0,1-.34-0.41l-1.9-4.35a0.3,0.3,0,0,0-.24-0.22,0.277,0.277,0,0,0-.24.22Zm17.6,0a1.116,1.116,0,0,1-.35.41,0.931,0.931,0,0,1-.5.2l-4.72.47a0.27,0.27,0,0,0-.29.15,0.333,0.333,0,0,0,.13.31l3.57,3.14a0.906,0.906,0,0,1,.27.45,1.036,1.036,0,0,1,.05.54l-1.02,4.64a0.3,0.3,0,0,0,.04.33,0.336,0.336,0,0,0,.34-0.04l4.1-2.42a1.065,1.065,0,0,1,1.02,0l4.1,2.42a0.317,0.317,0,0,0,.32.03,0.3,0.3,0,0,0,.08-0.32l-1.03-4.64a1.013,1.013,0,0,1,.03-0.54,0.928,0.928,0,0,1,.29-0.45l3.55-3.14a0.323,0.323,0,0,0,.14-0.31,0.286,0.286,0,0,0-.3-0.15l-4.72-.47a0.9,0.9,0,0,1-.49-0.2,1.084,1.084,0,0,1-.34-0.41l-1.9-4.35a0.3,0.3,0,0,0-.24-0.22,0.277,0.277,0,0,0-.24.22Zm17.6,0a1.116,1.116,0,0,1-.35.41,0.931,0.931,0,0,1-.5.2l-4.72.47a0.27,0.27,0,0,0-.29.15,0.333,0.333,0,0,0,.13.31l3.57,3.14a0.906,0.906,0,0,1,.27.45,1.036,1.036,0,0,1,.05.54l-1.02,4.64a0.3,0.3,0,0,0,.04.33,0.336,0.336,0,0,0,.34-0.04l4.1-2.42a1.065,1.065,0,0,1,1.02,0l4.1,2.42a0.317,0.317,0,0,0,.32.03,0.3,0.3,0,0,0,.08-0.32l-1.03-4.64a1.013,1.013,0,0,1,.03-0.54,0.928,0.928,0,0,1,.29-0.45l3.55-3.14a0.323,0.323,0,0,0,.14-0.31,0.286,0.286,0,0,0-.3-0.15l-4.72-.47a0.9,0.9,0,0,1-.49-0.2,1.084,1.084,0,0,1-.34-0.41l-1.9-4.35a0.3,0.3,0,0,0-.24-0.22,0.277,0.277,0,0,0-.24.22Z" transform="translate(-1056.97 -2290.69)"/>
</svg>
