<svg xmlns="http://www.w3.org/2000/svg" width="28.75" height="15.38" viewBox="0 0 28.75 15.38">
  <defs>
    <style>
      .cls-1 {
        fill: #fff;
        fill-rule: evenodd;
      }
    </style>
  </defs>
  <path id="Product_Left_Arrow" data-name="Product Left Arrow" class="cls-1" d="M78.376,2083.24v5.28a0.58,0.58,0,0,1-.264.62,0.568,0.568,0,0,1-.6-0.29l-6.528-6.52a1.33,1.33,0,0,1-.336-0.89,1.126,1.126,0,0,1,.336-0.84l6.528-6.58a0.605,0.605,0,0,1,.6-0.24,0.6,0.6,0,0,1,.264.63v5.28H98.152a1.207,1.207,0,0,1,.888.36,1.192,1.192,0,0,1,.36.88v1.06a1.23,1.23,0,0,1-1.248,1.25H78.376Z" transform="translate(-70.656 -2073.78)"/>
</svg>
