<svg xmlns="http://www.w3.org/2000/svg" data-test="" class="icon is-large  is-cart " focusable="false" viewBox="0 0 1 1" aria-hidden="true" xmlns:xlink="http://www.w3.org/1999/xlink" width="17"  height="17" ><defs><symbol id="cart" viewBox="0 0 20 20"><path fill="#1D1D1D" d="M19.4 7.7c-.1-.1-.2-.2-.4-.2h-4.5V6.4c0-2.7-2-4.9-4.5-4.9S5.5 3.7 5.5 6.4v1.1H1c-.2 0-.3.1-.4.2s-.1.3-.1.4l2.3 10c.1.2.3.4.5.4h13.4c.2 0 .4-.2.5-.4l2.3-10c0-.1 0-.3-.1-.4zM6.5 6.4c0-2.2 1.6-3.9 3.5-3.9s3.5 1.8 3.5 3.9v1.1h-7V6.4zm9.8 11.1H3.7l-2.1-9h3.9V10c0 .3.2.5.5.5s.5-.2.5-.5V8.5h7V10c0 .3.2.5.5.5s.5-.2.5-.5V8.5h3.9l-2.1 9z"></path></symbol></defs>
  <use xlink:href="#cart" stroke="#1D1D1D" fill="#1D1D1D" stroke-width="0px"></use>
</svg>