<svg xmlns="http://www.w3.org/2000/svg" width="28.82" height="15.38" viewBox="0 0 28.82 15.38">
  <defs>
    <style>
      .cls-1 {
        fill: #fff;
        fill-rule: evenodd;
      }
    </style>
  </defs>
  <path id="Product_Right_Arrow" data-name="Product Right Arrow" class="cls-1" d="M1820.96,2082.88a1.214,1.214,0,0,1-.36-0.89v-1.1a1.151,1.151,0,0,1,.36-0.84,1.214,1.214,0,0,1,.89-0.36h19.77v-5.28a0.591,0.591,0,0,1,.27-0.63,0.613,0.613,0,0,1,.6.24l6.53,6.58a1.074,1.074,0,0,1,.38.84,1.26,1.26,0,0,1-.38.89l-6.53,6.52a0.466,0.466,0,1,1-.87-0.33v-5.28h-19.77A1.214,1.214,0,0,1,1820.96,2082.88Z" transform="translate(-1820.59 -2073.78)"/>
</svg>
