<svg xmlns="http://www.w3.org/2000/svg" data-test="" class="icon is-large  is-search " focusable="false" viewBox="0 0 1 1" aria-hidden="true" xmlns:xlink="http://www.w3.org/1999/xlink" width="17"  height="17" ><defs><symbol id="search" viewBox="0 0 20 20"><path d="M18.4 17.6l-3.7-3.7c1.2-1.3 1.9-3 1.9-4.9 0-4.1-3.4-7.5-7.5-7.5S1.5 4.9 1.5 9s3.4 7.5 7.5 7.5c1.9 0 3.6-.7 4.9-1.9l3.7 3.7c.1.1.2.1.4.1s.3 0 .4-.1c.1-.1.1-.5 0-.7zM2.5 9c0-3.6 2.9-6.5 6.5-6.5s6.5 2.9 6.5 6.5-2.9 6.5-6.5 6.5S2.5 12.6 2.5 9z"></path></symbol></defs>
  <use xlink:href="#search" stroke="#1D1D1D" fill="#1D1D1D" stroke-width="0px"></use>
</svg>