<svg xmlns="http://www.w3.org/2000/svg" data-test="{}" class="icon is-large  is-account " focusable="false" viewBox="0 0 1 1" aria-hidden="true" xmlns:xlink="http://www.w3.org/1999/xlink" width="17"  height="17" ><defs><symbol id="account" viewBox="0 0 20 20"><path fill="#1D1D1D" d="M10 8.5C8.1 8.5 6.5 6.9 6.5 5S8.1 1.5 10 1.5s3.5 1.6 3.5 3.5-1.6 3.5-3.5 3.5zm0-6C8.6 2.5 7.5 3.6 7.5 5S8.6 7.5 10 7.5s2.5-1.1 2.5-2.5-1.1-2.5-2.5-2.5zM18 18.5H2c-.3 0-.5-.2-.5-.5 0-4.7 3.8-8.5 8.5-8.5s8.5 3.8 8.5 8.5c0 .3-.2.5-.5.5zm-15.5-1h15c-.3-3.9-3.5-7-7.5-7s-7.2 3.1-7.5 7z"></path></symbol></defs>
  <use xlink:href="#account" stroke="#1D1D1D" fill="#1D1D1D" stroke-width="0px"></use>
</svg>