<svg xmlns="http://www.w3.org/2000/svg" viewBox="0 0 214.83 152.47"><defs><style>.cls-1{fill:#44797b;}</style></defs><g id="Layer_2" data-name="Layer 2"><g id="Design"><path class="cls-1" d="M104.22,27.05l3.06,3h0l.42-.41,2.37-2.31h0l.25-.25h0a1.9,1.9,0,0,0,.52-1.3,1.93,1.93,0,0,0-2-1.91,2,2,0,0,0-1.33.51h0l-.26.25-.26-.25h0a2,2,0,0,0-1.34-.51,1.94,1.94,0,0,0-2,1.91,1.86,1.86,0,0,0,.53,1.3Z"/><path class="cls-1" d="M108.88,59.62a2,2,0,0,0-1.33.51h0l-.26.26-.26-.26h0a2,2,0,0,0-1.34-.51,1.94,1.94,0,0,0-2,1.91,1.86,1.86,0,0,0,.53,1.3h0l3.06,3h0l.42-.41,2.37-2.3h0l.25-.25h0a1.9,1.9,0,0,0,.52-1.3A1.94,1.94,0,0,0,108.88,59.62Z"/><path class="cls-1" d="M84.34,90a7.46,7.46,0,0,0,9.52-6.8,7.32,7.32,0,0,0-3.71-6.64,22.37,22.37,0,0,1-9-11.19,16.73,16.73,0,0,1-.44-2.5A5,5,0,0,1,90.27,61a23.86,23.86,0,0,0,6.28,8.12,17.26,17.26,0,0,1-1.06-6A17,17,0,0,1,97,56a.61.61,0,0,0-.24-.87,3.1,3.1,0,0,1-1.54-2.6A2.65,2.65,0,0,1,98,49.82a2.6,2.6,0,0,1,1.92.75,1.51,1.51,0,0,0,1.74,0,11.29,11.29,0,0,1,5.87-1.78,9.53,9.53,0,0,1,5.78,1.86,1.54,1.54,0,0,0,1.82,0,2.92,2.92,0,0,1,1.93-.78,2.76,2.76,0,0,1,2.8,2.8,2.84,2.84,0,0,1-1.56,2.51c-.5.2-.67.44-.38,1.11A18.67,18.67,0,0,1,119.38,63a16.81,16.81,0,0,1-.9,5.6,24.67,24.67,0,0,0,5.6-7.51,5.18,5.18,0,0,1,4.59-3,4.9,4.9,0,0,1,5,4.86,5.69,5.69,0,0,1-.35,2.19C131.19,71,128,74,124,76.87a7.45,7.45,0,0,0-3.23,6,7.29,7.29,0,0,0,6.93,7.49A17.28,17.28,0,0,0,135,88.3,23.53,23.53,0,0,0,147.7,67a24.41,24.41,0,0,0-6.6-16.23c-8.49-9.44-13.17-19.9-14.06-31.6a21.12,21.12,0,0,0-4.35-10.22c.16-.16,1.84-2.26,1.84-2.26a4.29,4.29,0,0,0-1-5.87,4.16,4.16,0,0,0-5.65.85,4.19,4.19,0,0,1-4.38,1,20.88,20.88,0,0,0-6.21-1,17.93,17.93,0,0,0-6,1,8.09,8.09,0,0,1-1.5.21,4,4,0,0,1-2.94-1.2A4.25,4.25,0,0,0,91,.87a4.2,4.2,0,0,0-.73,6,24.45,24.45,0,0,0,1.93,1.87C89.79,11.37,88,16,87.63,20a51.06,51.06,0,0,1-13.48,30.3,24.23,24.23,0,0,0-7,16.72A23.5,23.5,0,0,0,78.44,87.57,32.16,32.16,0,0,0,84.34,90Zm16.43-67.27a6.22,6.22,0,0,1,.62-2.65l0-.1c1.6-3.64,5.85-6.53,5.85-6.53s4,3.06,5.71,6.27c0,.06,0,.12.07.18a6.15,6.15,0,0,1,.71,2.83V27.6a6.43,6.43,0,0,1-6.49,6.34h0a6.44,6.44,0,0,1-6.5-6.34Z"/><path class="cls-1" d="M55.37,116.41a17.15,17.15,0,1,0,17.14,17.14A17.14,17.14,0,0,0,55.37,116.41Zm0,26.27a9.13,9.13,0,1,1,9.13-9.13A9.13,9.13,0,0,1,55.38,142.68Z"/><path class="cls-1" d="M177.44,143.08h-1.25c-2.62,0-4.13-1-4.88-3.42a11.09,11.09,0,0,1-.37-2.16c-1-10.51-3.06-32-3.06-32a.35.35,0,0,0-.38-.31l-11.44,1.1a.33.33,0,0,0-.31.37l.41,4.26a4.24,4.24,0,0,1,4.31,3.84c.67,7.13,1.47,15.87,2.24,23.6a31.68,31.68,0,0,0,.73,4.32,9.67,9.67,0,0,0,3.17,5.39c3.4,2.8,7.4,2.79,11.5,2.54a.35.35,0,0,0,.33-.38l-.65-6.79A.36.36,0,0,0,177.44,143.08Z"/><path class="cls-1" d="M41.28,116V104.65a.37.37,0,0,0-.38-.37H.37a.37.37,0,0,0-.37.37V116a.38.38,0,0,0,.37.37H5.11a5.38,5.38,0,0,1,10.66,1.06v22.15a6.28,6.28,0,0,1-4.71,6.08V150a.37.37,0,0,0,.37.38H29.59A.38.38,0,0,0,30,150v-4.28a6.29,6.29,0,0,1-4.67-6.05s0-19,0-22.17a5.37,5.37,0,0,1,8.89-4.08,4.81,4.81,0,0,1,1.94,3H40.9A.38.38,0,0,0,41.28,116Z"/><path class="cls-1" d="M113.71,144.05a4.09,4.09,0,0,1-2.64-3.83c0-.08,0-.92,0-1.25V104.62a.34.34,0,0,0-.34-.34H99.63a.34.34,0,0,0-.34.34V109a4.25,4.25,0,0,1,3.48,3.5c0,.39,0,1.61,0,1.61v5.16a17.15,17.15,0,1,0,1.39,27.45l.55-.38a9,9,0,0,0,1,1.28,11.51,11.51,0,0,0,5.74,3.05l.31.06.1-.29,2-6A.34.34,0,0,0,113.71,144.05Zm-20.47-1.37a9.13,9.13,0,1,1,9.12-9.13A9.13,9.13,0,0,1,93.24,142.68Z"/><path class="cls-1" d="M150,140.64c.19-2.09.51-5.55.7-7.65l2.45-26.55a.33.33,0,0,0-.31-.37l-11-1a.35.35,0,0,0-.38.31l-.41,4.4a4.26,4.26,0,0,1,3.15,3.81c0,.39-.15,1.6-.15,1.6-.15,1.71-.31,3.42-.47,5.14a17.15,17.15,0,1,0-1.15,27.46l.58-.33a8.71,8.71,0,0,0,.93,1.37,11.41,11.41,0,0,0,5.43,3.56l.3.1.13-.29,2.57-5.77a.34.34,0,0,0-.18-.46,4.1,4.1,0,0,1-2.27-4.06C149.91,141.81,150,141,150,140.64Zm-8.17-6.19a9.13,9.13,0,1,1-8.25-9.93A9.13,9.13,0,0,1,141.84,134.45Z"/><path class="cls-1" d="M197.66,116.41a17.15,17.15,0,1,0,0,34.29,17,17,0,0,0,12-4.88.34.34,0,0,0,0-.48c-.54-.61-2.85-3.27-3.74-4.32a.35.35,0,0,0-.51,0,10.07,10.07,0,0,1-7.69,3.32A10.71,10.71,0,0,1,188,138a.34.34,0,0,1,.31-.49c3.32,0,25.59,0,25.81,0a.34.34,0,0,0,.34-.27,25.43,25.43,0,0,0,.41-3.72A17.15,17.15,0,0,0,197.66,116.41Zm8.45,14.39c-.24,0-14.79,0-16.87,0a.34.34,0,0,1-.32-.45,9,9,0,0,1,8.75-6.23,9.52,9.52,0,0,1,8.76,6.22A.34.34,0,0,1,206.11,130.8Z"/><path class="cls-1" d="M211.55,110.72a3.28,3.28,0,1,0-3.28-3.27A3.26,3.26,0,0,0,211.55,110.72Zm0-5.81a2.54,2.54,0,1,1-2.5,2.54A2.46,2.46,0,0,1,211.55,104.91Z"/><path class="cls-1" d="M211.13,107.84h.37l.63,1.35H213l-.73-1.47a1,1,0,0,0,.64-.92,1.11,1.11,0,0,0-1.16-1.1h-1.42v3.49h.78Zm0-1.49h.54a.45.45,0,0,1,.48.45.46.46,0,0,1-.48.45h-.54Z"/></g></g></svg>